# Blender v2.78 (sub 0) OBJ File: 'Hallway_DoubleWide_Doorway.blend'
# www.blender.org
mtllib Hallway_DoubleWide_Doorway.mtl
o Hallway_DoubleWide_Doorway_Mesh
v 0.250000 -0.000000 -0.000000
v 0.000000 0.000000 0.000000
v 0.000000 0.000000 -0.100000
v 0.250000 -0.000000 -0.100000
v 0.250000 2.250000 -0.100000
v 0.250000 2.350000 -0.000000
v 0.250000 -0.000000 -3.200000
v -0.000000 0.000000 -3.200000
v -0.000000 0.000000 -3.299999
v 0.250000 -0.000000 -3.299999
v 0.000000 2.250000 -0.100000
v 0.000000 2.350000 0.000000
v 0.250000 2.250000 -3.200000
v 0.250000 2.350000 -3.299999
v 0.000000 2.250000 -3.200000
v 0.000000 2.350000 -3.299999
v 0.100000 2.750000 -3.300000
v 0.100000 2.750000 0.000000
v 0.000000 2.750000 -0.000001
v 0.000000 2.750000 -3.300001
v 0.100000 2.700000 -0.000000
v 0.150000 2.750000 -3.300000
v 0.150000 2.750000 0.000000
v 0.100000 2.700000 -3.300000
v 0.147408 2.734628 -3.300000
v 0.140195 2.720817 -3.300000
v 0.129179 2.709802 -3.300000
v 0.115366 2.702590 -3.300000
v 0.115372 2.702592 -0.000000
v 0.129183 2.709805 -0.000000
v 0.140198 2.720820 -0.000000
v 0.147410 2.734634 0.000000
v 0.100000 2.725000 -3.300000
v 0.100000 2.725000 0.000000
v 0.100000 2.350000 -3.300000
v 0.100000 2.350000 0.000000
vt 0.0000 0.0000
vt 0.0000 0.0000
vt 0.0000 0.0000
vt 0.0000 0.0000
vt 0.0000 0.0000
vt 0.0000 0.0000
vt 0.0000 0.0000
vt 0.0000 0.0000
vt 0.0000 0.0000
vt 0.0000 0.0000
vt 0.0000 0.0000
vt 0.0000 0.0000
vt 0.0000 0.0000
vt 0.0000 0.0000
vt 0.0000 0.0000
vt 0.0000 0.0000
vt 0.0000 0.0000
vt 0.0000 0.0000
vt 0.0000 0.0000
vt 0.0000 0.0000
vt 0.0000 0.0000
vt 0.0000 0.0000
vt 0.0000 0.0000
vt 0.0000 0.0000
vt 0.0000 0.0000
vt 0.0000 0.0000
vt 0.0000 0.0000
vt 0.0000 0.0000
vt 0.0000 0.0000
vt 0.0000 0.0000
vt 0.0000 0.0000
vt 0.0000 0.0000
vt 0.0000 0.0000
vt 0.0000 0.0000
vt 0.0000 0.0000
vt 0.0000 0.0000
vn -1.0000 -0.0000 0.0000
vn 0.0000 0.0000 -1.0000
vn 0.0000 1.0000 0.0000
vn 0.0000 -0.0000 1.0000
vn 0.9861 -0.1663 -0.0000
vn 0.8864 -0.4629 0.0000
vn 0.7071 -0.7071 -0.0000
vn 0.4629 -0.8864 -0.0000
vn 0.1662 -0.9861 0.0000
vn 1.0000 0.0000 0.0000
vn -0.0000 -1.0000 0.0000
usemtl Material
s off
f 20/1/1 16/2/1 12/3/1 19/4/1
f 24/5/2 33/6/2 17/7/2 22/8/2 25/9/2 26/10/2 27/11/2 28/12/2
f 19/4/3 23/13/3 22/8/3 20/1/3
f 18/14/4 34/15/4 21/16/4 29/17/4 30/18/4 31/19/4 32/20/4 23/13/4
f 22/8/5 23/13/5 32/20/5 25/9/5
f 25/9/6 32/20/6 31/19/6 26/10/6
f 26/10/7 31/19/7 30/18/7 27/11/7
f 27/11/8 30/18/8 29/17/8 28/12/8
f 28/12/9 29/17/9 21/16/9 24/5/9
f 17/7/2 35/21/2 16/2/2 20/1/2
f 19/4/4 12/3/4 36/22/4 18/14/4
f 18/14/10 36/22/10 35/21/10 17/7/10
usemtl Material.001
f 1/23/11 2/24/11 3/25/11 4/26/11
f 4/26/10 5/27/10 6/28/10 1/23/10
f 7/29/11 8/30/11 9/31/11 10/32/11
f 11/33/1 3/25/1 2/24/1 12/3/1
f 12/3/4 2/24/4 1/23/4 6/28/4
f 13/34/10 7/29/10 10/32/10 14/35/10
f 15/36/1 11/33/1 12/3/1 16/2/1
f 16/2/3 12/3/3 6/28/3 14/35/3
f 5/27/10 13/34/10 14/35/10 6/28/10
f 11/33/11 15/36/11 13/34/11 5/27/11
f 9/31/2 16/2/2 14/35/2 10/32/2
f 8/30/1 15/36/1 16/2/1 9/31/1
f 3/25/2 11/33/2 5/27/2 4/26/2
f 13/34/4 15/36/4 8/30/4 7/29/4
