# Blender v2.78 (sub 0) OBJ File: 'Hallway_Light.blend'
# www.blender.org
mtllib Hallway_Light.mtl
o Hallway_Light_Mesh
v -0.050000 -0.500000 -1.000000
v -0.050000 0.000000 -1.000000
v 1.000000 -0.500000 -0.050000
v 1.000000 0.000000 -0.050000
v 0.050000 -0.500000 1.000000
v 0.050000 0.000000 1.000000
v -1.000000 -0.500000 0.050000
v -1.000000 0.000000 0.050000
v -0.050000 -0.500000 1.000000
v -0.050000 0.000000 1.000000
v 1.000000 -0.500000 0.050000
v 1.000000 0.000000 0.050000
v 0.050000 -0.500000 -1.000000
v 0.050000 0.000000 -1.000000
v -1.000000 -0.500000 -0.050000
v -1.000000 0.000000 -0.050000
v 1.050000 0.000000 -0.050000
v 1.050000 -0.500000 -0.050000
v 1.050000 -0.500000 0.050000
v 1.050000 0.000000 0.050000
v 0.050000 -0.500000 -1.050000
v -0.050000 -0.500000 -1.050000
v 0.050000 0.000000 -1.050000
v -0.050000 0.000000 -1.050000
v -1.050000 -0.000000 0.050000
v -1.050000 -0.500000 0.050000
v -1.050000 -0.500000 -0.050000
v -1.050000 -0.000000 -0.050000
v 0.050000 -0.000000 1.050000
v 0.050000 -0.500000 1.050000
v -0.050000 -0.500000 1.050000
v -0.050000 -0.000000 1.050000
v 1.000000 -0.500000 0.050000
v 0.050000 -0.500000 1.000000
v 0.988304 -0.500000 0.198613
v 0.953504 -0.500000 0.343566
v 0.896456 -0.500000 0.481291
v 0.818566 -0.500000 0.608396
v 0.721751 -0.500000 0.721751
v 0.608396 -0.500000 0.818566
v 0.481291 -0.500000 0.896456
v 0.343566 -0.500000 0.953504
v 0.198613 -0.500000 0.988304
v 0.049999 0.000000 1.000000
v 1.000000 -0.000000 0.050001
v 0.198612 0.000000 0.988304
v 0.343566 0.000000 0.953504
v 0.481290 0.000000 0.896456
v 0.608395 0.000000 0.818567
v 0.721751 0.000000 0.721752
v 0.818566 0.000000 0.608396
v 0.896456 0.000000 0.481291
v 0.953503 0.000000 0.343567
v 0.988304 0.000000 0.198613
v 0.050000 -0.500000 -1.000000
v 1.000000 -0.500000 -0.050000
v 0.198613 -0.500000 -0.988304
v 0.343566 -0.500000 -0.953504
v 0.481291 -0.500000 -0.896456
v 0.608396 -0.500000 -0.818566
v 0.721751 -0.500000 -0.721751
v 0.818566 -0.500000 -0.608396
v 0.896456 -0.500000 -0.481291
v 0.953504 -0.500000 -0.343566
v 0.988304 -0.500000 -0.198613
v 1.000000 0.000000 -0.050000
v 0.050000 0.000000 -1.000000
v 0.988304 0.000000 -0.198612
v 0.953504 0.000000 -0.343566
v 0.896456 0.000000 -0.481291
v 0.818566 0.000000 -0.608396
v 0.721752 0.000000 -0.721751
v 0.608396 0.000000 -0.818566
v 0.481291 0.000000 -0.896456
v 0.343567 0.000000 -0.953503
v 0.198613 0.000000 -0.988304
v -1.000000 -0.500000 -0.050000
v -0.050000 -0.500000 -1.000000
v -0.988304 -0.500000 -0.198613
v -0.953503 -0.500000 -0.343566
v -0.896456 -0.500000 -0.481291
v -0.818566 -0.500000 -0.608396
v -0.721751 -0.500000 -0.721752
v -0.608396 -0.500000 -0.818566
v -0.481291 -0.500000 -0.896456
v -0.343566 -0.500000 -0.953504
v -0.198613 -0.500000 -0.988304
v -0.050000 0.000000 -1.000000
v -1.000000 0.000000 -0.050000
v -0.198613 0.000000 -0.988304
v -0.343566 0.000000 -0.953504
v -0.481291 0.000000 -0.896456
v -0.608396 0.000000 -0.818566
v -0.721751 0.000000 -0.721751
v -0.818566 0.000000 -0.608396
v -0.896456 0.000000 -0.481291
v -0.953504 0.000000 -0.343566
v -0.988304 0.000000 -0.198613
v -0.050000 -0.500000 1.000000
v -1.000000 -0.500000 0.050000
v -0.198613 -0.500000 0.988304
v -0.343566 -0.500000 0.953504
v -0.481291 -0.500000 0.896456
v -0.608396 -0.500000 0.818566
v -0.721751 -0.500000 0.721751
v -0.818566 -0.500000 0.608396
v -0.896456 -0.500000 0.481291
v -0.953504 -0.500000 0.343566
v -0.988304 -0.500000 0.198613
v -1.000000 0.000000 0.050000
v -0.050000 0.000000 1.000000
v -0.988304 0.000000 0.198613
v -0.953504 0.000000 0.343566
v -0.896456 0.000000 0.481291
v -0.818566 0.000000 0.608396
v -0.721752 0.000000 0.721751
v -0.608396 0.000000 0.818566
v -0.481291 0.000000 0.896456
v -0.343566 0.000000 0.953504
v -0.198613 0.000000 0.988304
v 0.050000 -0.500000 0.050000
v -0.050000 -0.500000 0.050000
v -0.050000 -0.500000 -0.050000
v 0.050000 -0.500000 -0.050000
v 0.050000 -0.500000 -0.050000
v 0.050000 -0.500000 0.050000
v -0.050000 -0.500000 0.050000
v -0.050000 -0.500000 -0.050000
v -1.000000 -0.525000 0.050000
v -0.050000 -0.525000 0.050000
v 0.050000 -0.525000 1.000000
v 0.050000 -0.525000 0.050000
v 0.050000 -0.525000 -1.000000
v -0.050000 -0.525000 -1.000000
v -1.000000 -0.525000 -0.050000
v -0.050000 -0.525000 -0.050000
v -0.050000 -0.525000 1.000000
v -0.050000 -0.525000 0.050000
v 1.000000 -0.525000 -0.050000
v 1.000000 -0.525000 0.050000
v 1.050000 -0.525000 -0.050000
v 1.050000 -0.525000 0.050000
v 0.050000 -0.525000 -1.050000
v -0.050000 -0.525000 -1.050000
v -1.050000 -0.525000 0.050000
v -1.050000 -0.525000 -0.050000
v 0.050000 -0.525000 1.050000
v -0.050000 -0.525000 1.050000
v 0.050000 -0.525000 -0.050000
v -0.050000 -0.525000 -0.050000
v 0.050000 -0.525000 -0.050000
v -0.010352 -0.575000 0.010352
v -0.050000 -0.535352 0.050000
v -0.030176 -0.569688 0.030176
v -0.044688 -0.555176 0.044688
v -0.050000 -0.535352 -0.050000
v -0.010352 -0.575000 -0.010352
v -0.044688 -0.555176 -0.044688
v -0.030176 -0.569688 -0.030176
v 0.050000 -0.535352 0.050000
v 0.010352 -0.575000 0.010352
v 0.044688 -0.555176 0.044688
v 0.030176 -0.569688 0.030176
v 0.010352 -0.575000 -0.010352
v 0.050000 -0.535352 -0.050000
v 0.030176 -0.569688 -0.030176
v 0.044688 -0.555176 -0.044688
vt 0.0000 0.0000
vt 0.0000 0.0000
vt 0.0000 0.0000
vt 0.0000 0.0000
vt 0.0000 0.0000
vt 0.0000 0.0000
vt 0.0000 0.0000
vt 0.0000 0.0000
vt 0.0000 0.0000
vt 0.0000 0.0000
vt 0.0000 0.0000
vt 0.0000 0.0000
vt 0.0000 0.0000
vt 0.0000 0.0000
vt 0.0000 0.0000
vt 0.0000 0.0000
vt 0.0000 0.0000
vt 0.0000 0.0000
vt 0.0000 0.0000
vt 0.0000 0.0000
vt 0.0000 0.0000
vt 0.0000 0.0000
vt 0.0000 0.0000
vt 0.0000 0.0000
vt 0.0000 0.0000
vt 0.0000 0.0000
vt 0.0000 0.0000
vt 0.0000 0.0000
vt 0.0000 0.0000
vt 0.0000 0.0000
vt 0.0000 0.0000
vt 0.0000 0.0000
vt 0.0000 0.0000
vt 0.0000 0.0000
vt 0.0000 0.0000
vt 0.0000 0.0000
vt 0.0000 0.0000
vt 0.0000 0.0000
vt 0.0000 0.0000
vt 0.0000 0.0000
vt 0.0000 0.0000
vt 0.0000 0.0000
vt 0.0000 0.0000
vt 0.0000 0.0000
vt 0.0000 0.0000
vt 0.0000 0.0000
vt 0.0000 0.0000
vt 0.0000 0.0000
vt 0.0000 0.0000
vt 0.0000 0.0000
vt 0.0000 0.0000
vt 0.0000 0.0000
vt 0.0000 0.0000
vt 0.0000 0.0000
vt 0.0000 0.0000
vt 0.0000 0.0000
vt 0.0000 0.0000
vt 0.0000 0.0000
vt 0.0000 0.0000
vt 0.0000 0.0000
vt 0.0000 0.0000
vt 0.0000 0.0000
vt 0.0000 0.0000
vt 0.0000 0.0000
vt 0.0000 0.0000
vt 0.0000 0.0000
vt 0.0000 0.0000
vt 0.0000 0.0000
vt 0.0000 0.0000
vt 0.0000 0.0000
vt 0.0000 0.0000
vt 0.0000 0.0000
vt 0.0000 0.0000
vt 0.0000 0.0000
vt 0.0000 0.0000
vt 0.0000 0.0000
vt 0.0000 0.0000
vt 0.0000 0.0000
vt 0.0000 0.0000
vt 0.0000 0.0000
vt 0.0000 0.0000
vt 0.0000 0.0000
vt 0.0000 0.0000
vt 0.0000 0.0000
vt 0.0000 0.0000
vt 0.0000 0.0000
vt 0.0000 0.0000
vt 0.0000 0.0000
vt 0.0000 0.0000
vt 0.0000 0.0000
vt 0.0000 0.0000
vt 0.0000 0.0000
vt 0.0000 0.0000
vt 0.0000 0.0000
vt 0.0000 0.0000
vt 0.0000 0.0000
vt 0.0000 0.0000
vt 0.0000 0.0000
vt 0.0000 0.0000
vt 0.0000 0.0000
vt 0.0000 0.0000
vt 0.0000 0.0000
vt 0.0000 0.0000
vt 0.0000 0.0000
vt 0.0000 0.0000
vt 0.0000 0.0000
vt 0.0000 0.0000
vt 0.0000 0.0000
vt 0.0000 0.0000
vt 0.0000 0.0000
vt 0.0000 0.0000
vt 0.0000 0.0000
vt 0.0000 0.0000
vt 0.0000 0.0000
vt 0.0000 0.0000
vt 0.0000 0.0000
vt 0.0000 0.0000
vt 0.0000 0.0000
vt 0.0000 0.0000
vt 0.0000 0.0000
vt 0.0000 0.0000
vt 0.0000 0.0000
vt 0.0000 0.0000
vt 0.0000 0.0000
vt 0.0000 0.0000
vt 0.0000 0.0000
vt 0.0000 0.0000
vt 0.0000 0.0000
vt 0.0000 0.0000
vt 0.0000 0.0000
vt 0.0000 0.0000
vt 0.0000 0.0000
vt 0.0000 0.0000
vt 0.0000 0.0000
vt 0.0000 0.0000
vt 0.0000 0.0000
vt 0.0000 0.0000
vt 0.0000 0.0000
vt 0.0000 0.0000
vt 0.0000 0.0000
vt 1.0000 0.0000
vt 1.0000 1.0000
vt 0.0000 1.0000
vt 0.0000 0.0000
vt 1.0000 0.0000
vt 1.0000 1.0000
vt 0.0000 1.0000
vt 1.0000 0.0000
vt 1.0000 1.0000
vt 0.0000 1.0000
vt 1.0000 0.0000
vt 1.0000 1.0000
vt 0.0000 1.0000
vt 1.0000 0.0000
vt 1.0000 1.0000
vt 0.0000 1.0000
vt 1.0000 0.0000
vt 1.0000 1.0000
vt 0.0000 1.0000
vt 0.0000 0.0000
vt 1.0000 0.0000
vt 1.0000 1.0000
vt 0.0000 1.0000
vt 0.0000 0.0000
vt 1.0000 0.0000
vt 1.0000 1.0000
vt 0.0000 1.0000
vt 1.0000 0.0000
vt 1.0000 1.0000
vt 0.0000 1.0000
vt 0.0000 0.0000
vt 0.0000 0.0000
vt 0.0000 0.0000
vt 0.0000 0.0000
vt 0.0000 0.0000
vt 0.0000 0.0000
vt 0.0000 0.0000
vt 1.0000 0.0000
vt 1.0000 1.0000
vt 0.0000 1.0000
vt 1.0000 1.0000
vt 0.0000 1.0000
vt 1.0000 1.0000
vt 0.0000 1.0000
vt 0.0000 0.0000
vt 1.0000 0.0000
vt 1.0000 1.0000
vt 0.0000 1.0000
vt 0.0000 0.0000
vt 1.0000 0.0000
vt 1.0000 1.0000
vt 0.0000 1.0000
vt 0.0000 0.0000
vt 1.0000 0.0000
vt 1.0000 1.0000
vt 0.0000 1.0000
vt 0.0000 0.0000
vt 1.0000 0.0000
vt 1.0000 1.0000
vt 0.0000 1.0000
vt 0.0000 0.0000
vt 1.0000 0.0000
vt 1.0000 1.0000
vt 0.0000 1.0000
vt 0.0000 0.0000
vt 1.0000 0.0000
vt 0.0000 0.0000
vt 1.0000 0.0000
vt 1.0000 1.0000
vt 1.0000 0.0000
vt 1.0000 1.0000
vt 1.0000 0.0000
vt 0.0000 0.0000
vt 1.0000 0.0000
vt 0.0000 1.0000
vt 0.0000 0.0000
vt 0.0000 1.0000
vt 0.0000 0.0000
vt 1.0000 1.0000
vt 0.0000 1.0000
vt 0.0000 0.0000
vt 1.0000 1.0000
vn 0.0000 0.0000 -1.0000
vn 1.0000 0.0000 0.0000
vn -1.0000 0.0000 -0.0000
vn 0.0000 -1.0000 0.0000
vn -0.0000 1.0000 0.0000
vn -0.0000 -0.0000 1.0000
vn 0.9969 0.0000 0.0785
vn 0.9724 0.0000 0.2334
vn 0.9239 0.0000 0.3827
vn 0.8526 0.0000 0.5225
vn 0.7604 0.0000 0.6494
vn 0.6494 -0.0000 0.7604
vn 0.5225 -0.0000 0.8526
vn 0.3827 -0.0000 0.9239
vn 0.2334 -0.0000 0.9724
vn 0.0785 -0.0000 0.9969
vn 0.0785 0.0000 -0.9969
vn 0.2334 0.0000 -0.9724
vn 0.3827 0.0000 -0.9239
vn 0.5225 -0.0000 -0.8526
vn 0.6494 -0.0000 -0.7604
vn 0.7604 -0.0000 -0.6494
vn 0.8526 -0.0000 -0.5225
vn 0.9239 -0.0000 -0.3827
vn 0.9724 -0.0000 -0.2334
vn 0.9969 0.0000 -0.0785
vn -0.9969 -0.0000 -0.0785
vn -0.9724 -0.0000 -0.2334
vn -0.9239 -0.0000 -0.3827
vn -0.8526 -0.0000 -0.5225
vn -0.7604 -0.0000 -0.6494
vn -0.6494 -0.0000 -0.7604
vn -0.5225 0.0000 -0.8526
vn -0.3827 0.0000 -0.9239
vn -0.2334 0.0000 -0.9724
vn -0.0785 0.0000 -0.9969
vn -0.0785 -0.0000 0.9969
vn -0.2334 -0.0000 0.9724
vn -0.3827 -0.0000 0.9239
vn -0.5225 -0.0000 0.8526
vn -0.6494 -0.0000 0.7604
vn -0.7604 -0.0000 0.6494
vn -0.8526 -0.0000 0.5225
vn -0.9239 -0.0000 0.3827
vn -0.9724 -0.0000 0.2334
vn -0.9969 -0.0000 0.0785
vn -0.9659 -0.2588 -0.0000
vn -0.7071 -0.7071 -0.0000
vn -0.2588 -0.9659 -0.0000
vn 0.2588 -0.9659 -0.0000
vn 0.7071 -0.7071 -0.0000
vn 0.9659 -0.2588 0.0000
vn 0.0000 -0.9659 0.2588
vn -0.0000 -0.7071 0.7071
vn -0.0000 -0.2588 0.9659
vn 0.0000 -0.2588 -0.9659
vn 0.0000 -0.7071 -0.7071
vn 0.0000 -0.9659 -0.2588
usemtl Material
s off
f 34/1/1 44/2/1 6/3/1 5/4/1
f 100/5/2 110/6/2 8/7/2 7/8/2
f 2/9/1 1/10/1 78/11/1 88/12/1
f 1/10/3 2/9/3 24/13/3 22/14/3
f 15/15/2 16/16/2 89/17/2 77/18/2
f 67/19/1 55/20/1 13/21/1 14/22/1
f 55/20/4 57/23/4 58/24/4 59/25/4 60/26/4 61/27/4 62/28/4 63/29/4 64/30/4 65/31/4 56/32/4 3/33/4 11/34/4 33/35/4 35/36/4 36/37/4 37/38/4 38/39/4 39/40/4 40/41/4 41/42/4 42/43/4 43/44/4 34/1/4 5/4/4 9/45/4 99/46/4 101/47/4 102/48/4 103/49/4 104/50/4 105/51/4 106/52/4 107/53/4 108/54/4 109/55/4 100/5/4 7/8/4 15/15/4 77/18/4 79/56/4 80/57/4 81/58/4 82/59/4 83/60/4 84/61/4 85/62/4 86/63/4 87/64/4 78/11/4 1/10/4 13/21/4
f 6/3/5 10/65/5 32/66/5 29/67/5
f 15/15/1 128/68/1 136/69/1 135/70/1
f 7/8/6 8/7/6 25/71/6 26/72/6
f 18/73/2 17/74/2 20/75/2 19/76/2
f 3/33/1 4/77/1 17/74/1 18/73/1
f 4/77/5 12/78/5 20/75/5 17/74/5
f 12/78/6 11/34/6 19/76/6 20/75/6
f 23/79/1 21/80/1 22/14/1 24/13/1
f 122/81/1 121/82/1 132/83/1 138/84/1
f 14/22/2 13/21/2 21/80/2 23/79/2
f 2/9/5 14/22/5 23/79/5 24/13/5
f 26/72/3 25/71/3 28/85/3 27/86/3
f 8/7/5 16/16/5 28/85/5 25/71/5
f 16/16/1 15/15/1 27/86/1 28/85/1
f 5/4/2 30/87/2 147/88/2 131/89/2
f 30/87/6 29/67/6 32/66/6 31/90/6
f 10/65/3 9/45/3 31/90/3 32/66/3
f 18/73/2 19/76/2 142/91/2 141/92/2
f 5/4/2 6/3/2 29/67/2 30/87/2
f 33/35/7 45/93/7 54/94/7 35/36/7
f 35/36/8 54/94/8 53/95/8 36/37/8
f 36/37/9 53/95/9 52/96/9 37/38/9
f 37/38/10 52/96/10 51/97/10 38/39/10
f 38/39/11 51/97/11 50/98/11 39/40/11
f 39/40/12 50/98/12 49/99/12 40/41/12
f 40/41/13 49/99/13 48/100/13 41/42/13
f 41/42/14 48/100/14 47/101/14 42/43/14
f 42/43/15 47/101/15 46/102/15 43/44/15
f 43/44/16 46/102/16 44/2/16 34/1/16
f 11/34/2 12/78/2 45/93/2 33/35/2
f 55/20/17 67/19/17 76/103/17 57/23/17
f 57/23/18 76/103/18 75/104/18 58/24/18
f 58/24/19 75/104/19 74/105/19 59/25/19
f 59/25/20 74/105/20 73/106/20 60/26/20
f 60/26/21 73/106/21 72/107/21 61/27/21
f 61/27/22 72/107/22 71/108/22 62/28/22
f 62/28/23 71/108/23 70/109/23 63/29/23
f 63/29/24 70/109/24 69/110/24 64/30/24
f 64/30/25 69/110/25 68/111/25 65/31/25
f 65/31/26 68/111/26 66/112/26 56/32/26
f 56/32/3 66/112/3 4/77/3 3/33/3
f 77/18/27 89/17/27 98/113/27 79/56/27
f 79/56/28 98/113/28 97/114/28 80/57/28
f 80/57/29 97/114/29 96/115/29 81/58/29
f 81/58/30 96/115/30 95/116/30 82/59/30
f 82/59/31 95/116/31 94/117/31 83/60/31
f 83/60/32 94/117/32 93/118/32 84/61/32
f 84/61/33 93/118/33 92/119/33 85/62/33
f 85/62/34 92/119/34 91/120/34 86/63/34
f 86/63/35 91/120/35 90/121/35 87/64/35
f 87/64/36 90/121/36 88/12/36 78/11/36
f 66/112/5 68/111/5 69/110/5 70/109/5 71/108/5 72/107/5 73/106/5 74/105/5 75/104/5 76/103/5 67/19/5 14/22/5 2/9/5 88/12/5 90/121/5 91/120/5 92/119/5 93/118/5 94/117/5 95/116/5 96/115/5 97/114/5 98/113/5 89/17/5 16/16/5 8/7/5 110/6/5 112/122/5 113/123/5 114/124/5 115/125/5 116/126/5 117/127/5 118/128/5 119/129/5 120/130/5 111/131/5 10/65/5 6/3/5 44/2/5 46/102/5 47/101/5 48/100/5 49/99/5 50/98/5 51/97/5 52/96/5 53/95/5 54/94/5 45/93/5 12/78/5 4/77/5
f 99/46/37 111/131/37 120/130/37 101/47/37
f 101/47/38 120/130/38 119/129/38 102/48/38
f 102/48/39 119/129/39 118/128/39 103/49/39
f 103/49/40 118/128/40 117/127/40 104/50/40
f 104/50/41 117/127/41 116/126/41 105/51/41
f 105/51/42 116/126/42 115/125/42 106/52/42
f 106/52/43 115/125/43 114/124/43 107/53/43
f 107/53/44 114/124/44 113/123/44 108/54/44
f 108/54/45 113/123/45 112/122/45 109/55/45
f 109/55/46 112/122/46 110/6/46 100/5/46
f 9/45/6 10/65/6 111/131/6 99/46/6
f 27/86/1 15/15/1 135/70/1 146/132/1
f 22/14/1 21/80/1 143/133/1 144/134/1
f 31/90/3 9/45/3 137/135/3 148/136/3
f 11/34/6 121/82/6 132/83/6 140/137/6
f 123/138/3 1/10/3 134/139/3 150/140/3
f 140/137/4 139/141/4 141/142/4 142/143/4
f 133/144/4 134/145/4 144/146/4 143/147/4
f 135/70/4 129/148/4 145/149/4 146/150/4
f 137/135/4 131/151/4 147/152/4 148/153/4
f 135/70/4 136/154/4 130/155/4 129/156/4
f 138/84/4 132/157/4 131/158/4 137/159/4
f 149/160/4 150/161/4 134/162/4 133/163/4
f 139/164/4 140/165/4 132/166/4 151/167/4
f 136/69/1 151/168/1 165/169/1 156/170/1
f 127/171/6 7/8/6 129/172/6 130/173/6
f 26/72/3 27/86/3 146/132/3 145/174/3
f 125/175/1 3/33/1 139/164/1 151/176/1
f 124/177/6 123/138/6 150/140/6 149/160/6
f 30/87/6 31/90/6 148/136/6 147/88/6
f 9/45/3 122/81/3 138/84/3 137/135/3
f 121/82/2 5/4/2 131/89/2 132/83/2
f 121/82/6 127/171/6 130/173/6 132/83/6
f 3/33/1 18/73/1 141/92/1 139/164/1
f 128/68/1 125/175/1 151/176/1 136/69/1
f 19/76/6 11/34/6 140/137/6 142/91/6
f 1/10/3 22/14/3 144/134/3 134/139/3
f 13/21/2 124/177/2 149/160/2 133/144/2
f 7/8/6 26/72/6 145/174/6 129/172/6
f 21/80/2 13/21/2 133/144/2 143/133/2
f 132/83/6 130/178/6 153/179/6 160/180/6
f 151/176/2 132/157/2 160/181/2 165/182/2
f 130/173/3 136/154/3 156/183/3 153/184/3
f 153/185/47 156/186/47 158/187/47 155/188/47
f 155/189/48 158/190/48 159/191/48 154/192/48
f 154/193/49 159/194/49 157/195/49 152/196/49
f 161/197/50 164/198/50 166/199/50 163/200/50
f 163/201/51 166/202/51 167/203/51 162/204/51
f 162/205/52 167/206/52 165/169/52 160/180/52
f 152/207/53 161/208/53 163/209/53 154/192/53
f 154/193/54 163/210/54 162/211/54 155/188/54
f 155/189/55 162/212/55 160/181/55 153/184/55
f 156/213/56 165/214/56 167/203/56 158/215/56
f 158/216/57 167/206/57 166/199/57 159/217/57
f 159/218/58 166/202/58 164/219/58 157/220/58
f 157/221/4 164/198/4 161/222/4 152/196/4
l 125 126
