# Blender v2.78 (sub 0) OBJ File: 'Stairwell.blend'
# www.blender.org
mtllib Stairwell.mtl
g Stairwell_Mesh
v 2.499999 0.125000 -3.000000
v 0.500000 0.125000 -3.000000
v 2.500000 0.250000 -3.175000
v 2.500000 1.250000 -4.575000
v 2.500000 0.750000 -3.875000
v 2.500000 1.750000 -5.275000
v 2.500000 0.500000 -3.525000
v 2.500000 1.500000 -4.925000
v 2.500000 1.000000 -4.225000
v 0.500000 -0.500000 -3.000000
v 2.500000 0.375000 -3.350000
v 2.500000 1.375000 -4.750000
v 2.500000 0.875000 -4.050000
v 2.500000 1.875000 -5.450000
v 2.500000 0.625000 -3.700000
v 2.500000 1.625000 -5.100000
v 2.500000 1.125000 -4.400000
v 0.500000 1.375000 -5.625000
v 0.500000 1.125000 -4.400000
v 0.500000 1.625000 -5.100000
v 0.500000 0.625000 -3.700000
v 0.500000 1.875000 -5.450000
v 0.500000 0.875000 -4.050000
v 0.500000 1.375000 -4.750000
v 0.500000 0.375000 -3.350000
v 2.500000 1.375000 -5.625000
v 0.500000 1.000000 -4.225000
v 0.500000 1.500000 -4.925000
v 0.500000 0.500000 -3.525000
v 0.500000 1.750000 -5.275000
v 0.500000 0.750000 -3.875000
v 0.500000 1.250000 -4.575000
v 0.500000 0.250000 -3.175000
v 2.500000 0.125000 -3.175000
v 0.500000 0.125000 -3.175000
v 2.500000 0.250000 -3.350000
v 0.500000 0.250000 -3.350000
v 2.500000 0.375000 -3.525000
v 0.500000 0.375000 -3.525000
v 2.500000 0.500000 -3.700000
v 0.500000 0.500000 -3.700000
v 2.500000 0.625000 -3.875000
v 0.500000 0.625000 -3.875000
v 2.500000 0.750000 -4.050000
v 0.500000 0.750000 -4.050000
v 2.500000 0.875000 -4.225000
v 0.500000 0.875000 -4.225000
v 2.500000 1.000000 -4.400000
v 0.500000 1.000000 -4.400000
v 2.500000 1.125000 -4.575000
v 0.500000 1.125000 -4.575000
v 2.500000 1.250000 -4.750000
v 0.500000 1.250000 -4.750000
v 2.500000 1.375000 -4.925000
v 0.500000 1.375000 -4.925000
v 2.500000 1.500000 -5.100000
v 0.500000 1.500000 -5.100000
v 2.500000 1.625000 -5.275000
v 0.500000 1.625000 -5.275000
v 2.500000 1.750000 -5.450000
v 0.500000 1.750000 -5.450000
v 0.500000 0.000000 -3.000000
v 2.499999 0.000000 -3.000000
v 2.500000 1.875000 -5.625000
v 0.500000 1.875000 -5.625000
v 2.499999 -0.500000 -3.000000
v 2.499999 0.000000 0.000000
v 2.499999 -0.500000 0.000000
v -2.500000 -0.500000 -3.000000
v -2.500000 0.000000 -3.000000
v -2.500000 -0.500000 0.000000
v -2.500000 0.000000 0.000000
v 1.550000 0.000000 -0.000255
v 1.650000 0.000000 0.000000
v -1.650000 0.000000 -0.000127
v -1.550000 0.000000 0.000127
v 1.550000 2.250000 0.000000
v 1.650000 2.350000 0.000000
v -1.550000 2.250000 0.000127
v -1.650000 2.350000 -0.000127
v 1.650158 -0.000051 -0.125000
v 1.550158 -0.000051 -0.125255
v 1.550158 2.249949 -0.125000
v 1.650158 2.349949 -0.125000
v -1.649842 2.349949 -0.125127
v -1.549842 2.249949 -0.124872
v -1.649842 -0.000051 -0.125127
v -1.549842 -0.000051 -0.124872
v -2.500000 3.625000 -3.350000
v -2.500000 2.625000 -4.750000
v -2.500000 3.125000 -4.050000
v -2.500000 2.125000 -5.450000
v -0.499999 2.000000 -5.625000
v -2.499999 2.000000 -5.625000
v -2.500000 2.375000 -5.100000
v -2.500000 3.375000 -3.700000
v -2.500000 2.875000 -4.400000
v -0.499999 1.375000 -5.625000
v -2.500000 2.250000 -5.275000
v -2.500000 3.250000 -3.875000
v -2.500000 2.750000 -4.575000
v -2.500000 3.750000 -3.175000
v -2.500000 2.500000 -4.924999
v -2.500000 3.500000 -3.525000
v -2.500000 3.000000 -4.225000
v -0.500000 3.250000 -3.000000
v -0.500000 3.000000 -4.225000
v -0.500000 3.500000 -3.525000
v -0.499999 2.500000 -4.925000
v -0.500000 3.750000 -3.175000
v -0.499999 2.750000 -4.575000
v -0.500000 3.250000 -3.875000
v -0.499999 2.250000 -5.275000
v -2.500000 3.250000 -3.000000
v -0.499999 2.875000 -4.400000
v -0.500000 3.375000 -3.700000
v -0.499999 2.375000 -5.100000
v -0.500000 3.625000 -3.350000
v -0.499999 2.625000 -4.750000
v -0.500000 3.125000 -4.050000
v -0.500000 2.125000 -5.450000
v -2.500000 2.000000 -5.450000
v -0.500000 2.000000 -5.450000
v -2.500000 2.125000 -5.275000
v -0.499999 2.125000 -5.275000
v -2.500000 2.250000 -5.100000
v -0.499999 2.250000 -5.100000
v -2.500000 2.375000 -4.924999
v -0.499999 2.375000 -4.925000
v -2.500000 2.500000 -4.750000
v -0.499999 2.500000 -4.750000
v -2.500000 2.625000 -4.575000
v -0.499999 2.625000 -4.575000
v -2.500000 2.750000 -4.400000
v -0.499999 2.750000 -4.400000
v -2.500000 2.875000 -4.225000
v -0.500000 2.875000 -4.225000
v -2.500000 3.000000 -4.050000
v -0.500000 3.000000 -4.050000
v -2.500000 3.125000 -3.875000
v -0.500000 3.125000 -3.875000
v -2.500000 3.250000 -3.700000
v -0.500000 3.250000 -3.700000
v -2.500000 3.375000 -3.525000
v -0.500000 3.375000 -3.525000
v -2.500000 3.500000 -3.350000
v -0.500000 3.500000 -3.350000
v -2.500000 3.625000 -3.175000
v -0.500000 3.625000 -3.175000
v -0.499999 1.875000 -5.625000
v -2.499999 1.875000 -5.625000
v -2.500000 3.750000 -3.000000
v -0.500000 3.750000 -3.000000
v -2.499999 1.375000 -5.625000
v -2.499999 1.875000 -8.625000
v -2.499999 1.375000 -8.625000
v 2.500000 1.375000 -5.625000
v 2.500000 1.875000 -5.625000
v 2.500000 1.375000 -8.625000
v 2.500000 1.875000 -8.625000
v 2.500000 3.750000 0.000000
v -2.500000 3.750000 0.000000
v 2.500000 3.750000 -8.625000
v -2.500000 3.750000 -8.625000
v 2.500000 0.000000 -8.625000
v -2.500000 0.000000 -8.625000
vt 0.0000 0.0000
vt 0.0000 0.0000
vt 0.0000 0.0000
vt 0.0000 0.0000
vt 0.0000 0.0000
vt 0.0000 0.0000
vt 0.0000 0.0000
vt 0.0000 0.0000
vt 0.0000 0.0000
vt 0.0000 0.0000
vt 0.0000 0.0000
vt 0.0000 0.0000
vt 0.0000 0.0000
vt 0.0000 0.0000
vt 0.0000 0.0000
vt 0.0000 0.0000
vt 0.0000 0.0000
vt 0.0000 0.0000
vt 0.0000 0.0000
vt 0.0000 0.0000
vt 0.0000 0.0000
vt 0.0000 0.0000
vt 0.0000 0.0000
vt 0.0000 0.0000
vt 0.0000 0.0000
vt 0.0000 0.0000
vt 0.0000 0.0000
vt 0.0000 0.0000
vt 0.0000 0.0000
vt 0.0000 0.0000
vt 0.0000 0.0000
vt 0.0000 0.0000
vt 0.0000 0.0000
vt 0.0000 0.0000
vt 0.0000 0.0000
vt 0.0000 0.0000
vt 0.0000 0.0000
vt 0.0000 0.0000
vt 0.0000 0.0000
vt 0.0000 0.0000
vt 0.0000 0.0000
vt 0.0000 0.0000
vt 0.0000 0.0000
vt 0.0000 0.0000
vt 0.0000 0.0000
vt 0.0000 0.0000
vt 0.0000 0.0000
vt 0.0000 0.0000
vt 0.0000 0.0000
vt 0.0000 0.0000
vt 0.0000 0.0000
vt 0.0000 0.0000
vt 0.0000 0.0000
vt 0.0000 0.0000
vt 0.0000 0.0000
vt 0.0000 0.0000
vt 0.0000 0.0000
vt 0.0000 0.0000
vt 0.0000 0.0000
vt 0.0000 0.0000
vt 0.0000 0.0000
vt 0.0000 0.0000
vt 0.0000 0.0000
vt 0.0000 0.0000
vt 0.0000 0.0000
vt 0.0000 0.0000
vt 0.0000 0.0000
vt 0.0000 0.0000
vt 0.0000 0.0000
vt 0.0000 0.0000
vt 0.0000 0.0000
vt 0.0000 0.0000
vt 0.0000 0.0000
vt 0.0000 0.0000
vt 0.0000 0.0000
vt 0.0000 0.0000
vt 0.0000 0.0000
vt 0.0000 0.0000
vt 0.0000 0.0000
vt 0.0000 0.0000
vt 0.0000 0.0000
vt 0.0000 0.0000
vt 0.0000 0.0000
vt 0.0000 0.0000
vt 0.0000 0.0000
vt 0.0000 0.0000
vt 0.0000 0.0000
vt 0.0000 0.0000
vt 0.0000 0.0000
vt 0.0000 0.0000
vt 0.0000 0.0000
vt 0.0000 0.0000
vt 0.0000 0.0000
vt 0.0000 0.0000
vt 0.0000 0.0000
vt 0.0000 0.0000
vt 0.0000 0.0000
vt 0.0000 0.0000
vt 0.0000 0.0000
vt 0.0000 0.0000
vt 0.0000 0.0000
vt 0.0000 0.0000
vt 0.0000 0.0000
vt 0.0000 0.0000
vt 0.0000 0.0000
vt 0.0000 0.0000
vt 0.0000 0.0000
vt 0.0000 0.0000
vt 0.0000 0.0000
vt 0.0000 0.0000
vt 0.0000 0.0000
vt 0.0000 0.0000
vt 0.0000 0.0000
vt 0.0000 0.0000
vt 0.0000 0.0000
vt 0.0000 0.0000
vt 0.0000 0.0000
vt 0.0000 0.0000
vt 0.0000 0.0000
vt 0.0000 0.0000
vt 0.0000 0.0000
vt 0.0000 0.0000
vt 0.0000 0.0000
vt 0.0000 0.0000
vt 0.0000 0.0000
vt 0.0000 0.0000
vt 0.0000 0.0000
vt 0.0000 0.0000
vt 0.0000 0.0000
vt 0.0000 0.0000
vt 0.0000 0.0000
vt 0.0000 0.0000
vt 0.0000 0.0000
vt 0.0000 0.0000
vt 0.0000 0.0000
vt 0.0000 0.0000
vt 0.0000 0.0000
vt 0.0000 0.0000
vt 0.0000 0.0000
vt 0.0000 0.0000
vt 0.0000 0.0000
vt 0.0000 0.0000
vt 0.0000 0.0000
vt 0.0000 0.0000
vt 0.0000 0.0000
vt 0.0000 0.0000
vt 0.0000 0.0000
vt 0.0000 0.0000
vt 0.0000 0.0000
vt 0.0000 0.0000
vt 0.0000 0.0000
vt 0.0000 0.0000
vt 0.0000 0.0000
vt 0.0000 0.0000
vt 0.0000 0.0000
vt 0.0000 0.0000
vt 0.0000 0.0000
vt 0.0000 0.0000
vt 0.0000 0.0000
vt 0.0000 0.0000
vt 0.0000 0.0000
vt 0.0000 0.0000
vt 0.0000 0.0000
vt 0.0000 0.0000
vt 0.0000 0.0000
vt 0.0000 0.0000
vn 1.0000 0.0000 0.0000
vn -1.0000 0.0000 -0.0000
vn 0.0000 0.0000 1.0000
vn 0.0000 1.0000 0.0000
vn 0.0000 -0.8137 -0.5812
vn 0.0000 -1.0000 0.0000
vn 0.0000 0.0000 -1.0000
vn -0.0012 -0.0001 1.0000
vn 0.0000 0.0013 1.0000
vn -0.0025 0.0000 1.0000
vn 0.0012 0.0001 -1.0000
vn 0.0000 -0.0013 -1.0000
vn 0.0025 0.0000 -1.0000
vn 0.0000 -1.0000 0.0004
vn 1.0000 0.0000 0.0013
vn -1.0000 0.0000 -0.0013
vn 0.0000 1.0000 -0.0004
vn 0.0000 -0.8137 0.5812
vn -0.0001 0.0000 -1.0000
usemtl Material
s off
f 63/1/1 34/2/1 1/3/1
f 2/4/2 35/5/2 62/6/2
f 62/6/3 63/1/3 1/3/3 2/4/3
f 2/4/4 1/3/4 34/2/4 35/5/4
f 35/5/3 34/2/3 3/7/3 33/8/3
f 33/8/4 3/7/4 36/9/4 37/10/4
f 37/10/3 36/9/3 11/11/3 25/12/3
f 38/13/4 39/14/4 25/12/4 11/11/4
f 39/14/3 38/13/3 7/15/3 29/16/3
f 41/17/4 29/16/4 7/15/4 40/18/4
f 41/17/3 40/18/3 15/19/3 21/20/3
f 43/21/4 21/20/4 15/19/4 42/22/4
f 43/21/3 42/22/3 5/23/3 31/24/3
f 31/24/4 5/23/4 44/25/4 45/26/4
f 45/26/3 44/25/3 13/27/3 23/28/3
f 13/27/4 46/29/4 47/30/4 23/28/4
f 47/30/3 46/29/3 9/31/3 27/32/3
f 48/33/4 49/34/4 27/32/4 9/31/4
f 49/34/3 48/33/3 17/35/3 19/36/3
f 50/37/4 51/38/4 19/36/4 17/35/4
f 51/38/3 50/37/3 4/39/3 32/40/3
f 32/40/4 4/39/4 52/41/4 53/42/4
f 53/42/3 52/41/3 12/43/3 24/44/3
f 55/45/4 24/44/4 12/43/4 54/46/4
f 55/45/3 54/46/3 8/47/3 28/48/3
f 28/48/4 8/47/4 56/49/4 57/50/4
f 57/50/3 56/49/3 16/51/3 20/52/3
f 20/52/4 16/51/4 58/53/4 59/54/4
f 59/54/3 58/53/3 6/55/3 30/56/3
f 60/57/4 61/58/4 30/56/4 6/55/4
f 61/58/3 60/57/3 14/59/3 22/60/3
f 34/2/1 36/9/1 3/7/1
f 11/11/1 36/9/1 38/13/1
f 38/13/1 40/18/1 7/15/1
f 40/18/1 42/22/1 15/19/1
f 42/22/1 44/25/1 5/23/1
f 44/25/1 46/29/1 13/27/1
f 9/31/1 46/29/1 48/33/1
f 17/35/1 48/33/1 50/37/1
f 50/37/1 52/41/1 4/39/1
f 52/41/1 54/46/1 12/43/1
f 8/47/1 54/46/1 56/49/1
f 56/49/1 58/53/1 16/51/1
f 6/55/1 58/53/1 60/57/1
f 33/8/2 37/10/2 35/5/2
f 25/12/2 39/14/2 37/10/2
f 29/16/2 41/17/2 39/14/2
f 21/20/2 43/21/2 41/17/2
f 31/24/2 45/26/2 43/21/2
f 23/28/2 47/30/2 45/26/2
f 27/32/2 49/34/2 47/30/2
f 19/36/2 51/38/2 49/34/2
f 32/40/2 53/42/2 51/38/2
f 24/44/2 55/45/2 53/42/2
f 28/48/2 57/50/2 55/45/2
f 20/52/2 59/54/2 57/50/2
f 30/56/2 61/58/2 59/54/2
f 14/59/4 64/61/4 65/62/4 22/60/4
f 61/58/2 22/60/2 65/62/2
f 60/57/1 64/61/1 14/59/1
f 26/63/5 66/64/5 10/65/5 18/66/5
f 66/64/1 63/1/1 67/67/1 68/68/1
f 63/1/1 66/64/1 26/63/1 64/61/1
f 68/68/6 71/69/6 69/70/6 66/64/6
f 67/67/3 72/71/3 71/69/3 68/68/3
f 62/6/2 65/62/2 18/66/2 10/65/2
f 70/72/2 69/70/2 71/69/2 72/71/2
f 63/1/4 70/72/4 72/71/4 67/67/4
f 62/6/7 10/65/7 69/70/7 70/72/7
f 74/73/8 78/74/8 77/75/8 73/76/8
f 79/77/9 77/75/9 78/74/9 80/78/9
f 76/79/10 79/77/10 80/78/10 75/80/10
f 81/81/11 82/82/11 83/83/11 84/84/11
f 86/85/12 85/86/12 84/84/12 83/83/12
f 88/87/13 87/88/13 85/86/13 86/85/13
f 77/75/14 79/77/14 86/85/14 83/83/14
f 78/74/15 74/73/15 81/81/15 84/84/15
f 73/76/16 77/75/16 83/83/16 82/82/16
f 79/77/15 76/79/15 88/87/15 86/85/15
f 80/78/17 78/74/17 84/84/17 85/86/17
f 74/73/14 73/76/14 82/82/14 81/81/14
f 75/80/16 80/78/16 85/86/16 87/88/16
f 76/79/14 75/80/14 87/88/14 88/87/14
f 123/89/7 122/90/7 92/91/7 121/92/7
f 93/93/4 94/94/4 122/90/4 123/89/4
f 150/95/7 151/96/7 94/94/7 93/93/7
f 93/93/1 123/89/1 150/95/1
f 151/96/2 122/90/2 94/94/2
f 121/92/4 92/91/4 124/97/4 125/98/4
f 125/98/7 124/97/7 99/99/7 113/100/7
f 126/101/4 127/102/4 113/100/4 99/99/4
f 127/102/7 126/101/7 95/103/7 117/104/7
f 129/105/4 117/104/4 95/103/4 128/106/4
f 129/105/7 128/106/7 103/107/7 109/108/7
f 131/109/4 109/108/4 103/107/4 130/110/4
f 131/109/7 130/110/7 90/111/7 119/112/7
f 119/112/4 90/111/4 132/113/4 133/114/4
f 133/114/7 132/113/7 101/115/7 111/116/7
f 101/115/4 134/117/4 135/118/4 111/116/4
f 135/118/7 134/117/7 97/119/7 115/120/7
f 136/121/4 137/122/4 115/120/4 97/119/4
f 137/122/7 136/121/7 105/123/7 107/124/7
f 138/125/4 139/126/4 107/124/4 105/123/4
f 139/126/7 138/125/7 91/127/7 120/128/7
f 120/128/4 91/127/4 140/129/4 141/130/4
f 141/130/7 140/129/7 100/131/7 112/132/7
f 143/133/4 112/132/4 100/131/4 142/134/4
f 143/133/7 142/134/7 96/135/7 116/136/7
f 116/136/4 96/135/4 144/137/4 145/138/4
f 145/138/7 144/137/7 104/139/7 108/140/7
f 108/140/4 104/139/4 146/141/4 147/142/4
f 147/142/7 146/141/7 89/143/7 118/144/7
f 148/145/4 149/146/4 118/144/4 89/143/4
f 149/146/7 148/145/7 102/147/7 110/148/7
f 122/90/2 124/97/2 92/91/2
f 99/99/2 124/97/2 126/101/2
f 126/101/2 128/106/2 95/103/2
f 128/106/2 130/110/2 103/107/2
f 130/110/2 132/113/2 90/111/2
f 132/113/2 134/117/2 101/115/2
f 97/119/2 134/117/2 136/121/2
f 105/123/2 136/121/2 138/125/2
f 138/125/2 140/129/2 91/127/2
f 140/129/2 142/134/2 100/131/2
f 96/135/2 142/134/2 144/137/2
f 144/137/2 146/141/2 104/139/2
f 89/143/2 146/141/2 148/145/2
f 121/92/1 125/98/1 123/89/1
f 113/100/1 127/102/1 125/98/1
f 117/104/1 129/105/1 127/102/1
f 109/108/1 131/109/1 129/105/1
f 119/112/1 133/114/1 131/109/1
f 111/116/1 135/118/1 133/114/1
f 115/120/1 137/122/1 135/118/1
f 107/124/1 139/126/1 137/122/1
f 120/128/1 141/130/1 139/126/1
f 112/132/1 143/133/1 141/130/1
f 116/136/1 145/138/1 143/133/1
f 108/140/1 147/142/1 145/138/1
f 118/144/1 149/146/1 147/142/1
f 102/147/4 152/149/4 153/150/4 110/148/4
f 149/146/1 110/148/1 153/150/1
f 148/145/2 152/149/2 102/147/2
f 114/151/18 154/152/18 98/153/18 106/154/18
f 154/152/2 151/96/2 155/155/2 156/156/2
f 151/96/2 154/152/2 114/151/2 152/149/2
f 156/156/6 159/157/6 157/158/6 154/152/6
f 155/155/7 160/159/7 159/157/7 156/156/7
f 150/95/1 153/150/1 106/154/1 98/153/1
f 158/160/1 157/158/1 159/157/1 160/159/1
f 151/96/4 158/160/4 160/159/4 155/155/4
f 150/95/3 98/153/3 157/158/3 158/160/3
f 150/95/3 98/153/3 18/66/3 65/62/3
f 152/149/3 114/151/3 106/154/3 153/150/3
f 164/161/1 162/162/1 72/71/1 166/163/1
f 164/161/3 166/163/3 165/164/3 163/165/3
f 161/166/2 163/165/2 165/164/2 67/67/2
f 67/67/7 74/73/7 78/74/7 161/166/7
f 75/80/19 72/71/19 162/162/19 80/78/19
f 161/166/7 78/74/7 80/78/7 162/162/7
