# Blender v2.78 (sub 0) OBJ File: 'BasicDoor.blend'
# www.blender.org
mtllib BasicDoor.mtl
g BasicDoor_Mesh
v -0.075000 0.000000 0.000000
v 0.075000 -0.000000 -0.000000
v 0.075000 2.250000 -0.000000
v 0.075000 -0.000000 -1.550000
v -0.075000 0.000000 -1.550000
v -0.075000 2.250000 0.000000
v 0.075000 2.250000 -1.550000
v -0.075000 2.250000 -1.550000
vt 0.0000 0.0000
vt 1.0000 0.0000
vt 1.0000 1.0000
vt 0.0000 1.0000
vt 0.0000 0.0000
vt 1.0000 0.0000
vt 1.0000 1.0000
vt 0.0000 1.0000
vt 0.0000 0.0000
vt 1.0000 1.0000
vt 0.0000 1.0000
vt 0.0000 0.0000
vt 1.0000 1.0000
vt 0.0000 1.0000
vt 0.0000 0.0000
vt 1.0000 0.0000
vt 1.0000 1.0000
vn 0.0000 -0.0000 1.0000
vn 0.0000 1.0000 0.0000
vn 0.0000 0.0000 -1.0000
vn 1.0000 -0.0000 -0.0000
vn -1.0000 0.0000 0.0000
usemtl Material
s off
f 1/1/1 2/2/1 3/3/1 6/4/1
f 7/5/2 8/6/2 6/7/2 3/8/2
f 5/9/3 8/6/3 7/10/3 4/11/3
usemtl Material.001
f 3/12/4 2/2/4 4/13/4 7/14/4
f 8/15/5 5/16/5 1/17/5 6/4/5
